<svg class="prefix__variation-svg prefix__fade-enter-done" viewBox="35 132 370 226.5" xmlns="http://www.w3.org/2000/svg"
    xmlns:xlink="http://www.w3.org/1999/xlink">
    <image height="74.516" width="230" y="202" x="105" preserveAspectRatio="xMinYMin"
        href="https://fiverr-res.cloudinary.com/image/upload/f_png,q_auto,t_makers_project_variation_preview/v1/secured-attachments/makers_project_variation/preview_file/7377b0e2c37806b3fefc6aef7705f7fc-1643531702/61f64cf13ae47c0011933ffe.svg?__cld_token__=exp=1673893648~hmac=9910fcd23178273259e6842bbc90d8c84a28c8503986b7d3f37e09ce085389f2"
        style="position:absolute" /><svg data-layer-type="text" y="299" x="236.289" height="0" width="0"
        style="position:absolute" /><svg data-layer-type="text" y="254.96" viewBox="1.98 17.59 36.17 33.54" x="219.989"
        height="33.54" width="36.17" style="position:absolute">
        <path
            d="M13.97 17.59v.94q-1.6.05-2.42.36-.82.3-1.11 1.13-.28.82-.28 2.56v23.33q0 1.69.28 2.54.29.85 1.11 1.13.82.28 2.42.38v.94q-1.08-.1-2.7-.12-1.63-.02-3.27-.02-1.84 0-3.44.02-1.6.02-2.58.12v-.94q1.6-.1 2.42-.38.82-.28 1.1-1.13.29-.85.29-2.54V22.58q0-1.74-.29-2.56-.28-.83-1.1-1.13-.82-.31-2.42-.36v-.94q.98.05 2.58.1 1.6.04 3.44.04 1.64 0 3.27-.04 1.62-.05 2.7-.1zm24.18 9.08v.94q-.89.1-1.65.8-.75.71-1.41 2.5l-7.71 20.22h-.8l-8.66-20.84q-.75-1.83-1.48-2.23-.73-.4-1.25-.4v-.99q.94.05 1.96.12 1.01.07 2.18.07 1.46 0 3.08-.05 1.63-.04 3.04-.14v.99q-1.18 0-2.09.16-.92.17-1.18.92-.26.75.45 2.59l5.88 14.53-.29.24 5.37-14.07q.61-1.55.49-2.47-.12-.91-.94-1.38-.82-.47-2.52-.57v-.94q.85.05 1.46.07.61.03 1.2.05.59.02 1.29.02 1.09 0 1.96-.04.87-.05 1.62-.1z"
            data-horizontal-grow="left" font-size="47.04" font-weight="400" font-family="Playfair Display"
            dominant-baseline="hanging" />
    </svg>
</svg>