<svg viewBox="0 0 32 32" xmlns="http://www.w3.org/2000/svg"><g fill="none" fill-rule="evenodd"><path d="M0 0h32v32H0z"/><path d="M8.129.514c1.113.234 2.473.82 4.111 1.852l.14.088.162-.037c2.989-.679 6.113-.679 8.961 0l.168.04.144-.095C23.386 1.335 24.733.75 25.867.514c.76-.157 1.312-.141 1.727-.038.266.09.45.274.548.57.67 1.744.803 3.464.406 5.186l-.044.191.124.152c1.197 1.463 1.849 3.316 1.849 5.287 0 6.35-2.806 9.186-7.731 10.417l-.42.105.137.41c.253.76.395 1.681.395 2.505v5.264c0 .61-.375.985-.985.985s-.985-.375-.985-.985V25.16c.142-1.11-.243-2.07-1.087-2.915-.305-.305-.38-.653-.227-.88l.055-.126c.076-.302.381-.532.847-.687 5.312-.54 8.03-2.833 8.03-8.69 0-1.657-.613-3.267-1.763-4.56-.267-.269-.318-.628-.196-.993.421-1.124.458-2.303.147-3.548l-.093-.37-.374.074c-.948.19-2.147.754-3.75 1.864-.186.177-.424.199-.755.088a16.998 16.998 0 00-8.79-.126l-.45.121c-.363.12-.638.098-.915-.086-1.427-1.072-2.692-1.65-3.745-1.86l-.374-.075-.092.37c-.312 1.245-.275 2.424.152 3.562.1.413.076.71-.066.862l-.136.117c-1.15 1.293-1.763 2.903-1.763 4.56 0 5.857 2.719 8.15 8.116 8.709.377.002.658.257.761.668.101.405.012.822-.172 1.006-.743.743-1.086 1.659-1.086 2.776v5.402c0 .61-.375.986-.986.986-.61 0-.985-.375-.985-.986v-2.827l-.466.078c-2.547.424-4.244-.244-5.772-1.82l-.175-.187c-.26-.282-.34-.377-.88-1.038l-.362-.45a5.17 5.17 0 00-.427-.48c-.31-.31-.608-.505-.948-.59-.501-.1-.866-.698-.695-1.125.11-.517.637-.869 1.055-.774l.087.027c1.092.329 1.694.845 2.893 2.244 1.522 2.095 2.69 2.72 5.365 2.21l.325-.062v-.47c0-.835.145-1.738.387-2.344l.176-.44-.463-.1c-4.856-1.04-7.719-4.13-7.719-10.275 0-1.972.653-3.825 1.85-5.288l.132-.162-.058-.2c-.526-1.845-.398-3.547.395-5.264.115-.337.298-.52.594-.62.387-.095.9-.11 1.644.047z" fill="#000" fill-rule="nonzero"/></g></svg>