<svg class="prefix__variation-svg prefix__fade-enter-done" viewBox="183.859 142.439 207.281 323.924"
    xmlns="http://www.w3.org/2000/svg" xmlns:xlink="http://www.w3.org/1999/xlink">
    <image height="151.294" width="67.281" y="212.439" x="253.859" preserveAspectRatio="xMinYMin"
        href="https://fiverr-res.cloudinary.com/image/upload/f_png,q_auto,t_makers_project_variation_preview/v1/secured-attachments/makers_project_variation/preview_file/dafb69138cdbaaf5bc9b2a771213952d-1663611564/6328b1fd68d9aa70d1297f18.svg?__cld_token__=exp=1673893835~hmac=661ccabd4ea5d9bef5e00e89d5394c760063716a584f233379baf04e226b8831"
        style="position:absolute" /><svg data-layer-type="text" y="407.707" x="287.5" height="0" width="0"
        style="position:absolute" /><svg data-layer-type="text" y="381.293" viewBox="1.06 7.18 29.28 15.07" x="272.86"
        height="15.07" width="29.28" style="position:absolute">
        <path
            d="M4.78 20.23q0 .75.14 1.08.14.34.56.46.42.12 1.34.12.07 0 .07.14 0 .15-.07.15-.72 0-1.16-.03l-1.7-.02-1.66.02q-.43.03-1.17.03-.07 0-.07-.15 0-.14.07-.14.91 0 1.33-.12.42-.12.58-.47.15-.35.15-1.07V9.12q0-.72-.15-1.06-.16-.33-.58-.46-.42-.14-1.33-.14-.07 0-.07-.14t.07-.14l1.17.02q1.01.05 1.66.05.72 0 1.73-.05l1.13-.02q.07 0 .07.14t-.07.14q-.89 0-1.32.15-.44.14-.58.49-.14.35-.14 1.07v11.06zM30.26 7.18q.08 0 .08.14t-.08.14q-.81 0-1.41.44-.6.43-1.01 1.46l-5.11 12.79q-.03.1-.27.1-.19 0-.26-.1L16.22 9.17q-.4-.94-.86-1.32-.46-.39-1.18-.39-.07 0-.07-.14t.07-.14l.92.02q.67.05 1.08.05.93 0 2.04-.05l1-.02q.08 0 .08.14t-.08.14q-1.48 0-1.48.82 0 .31.21.79l5.19 11.35-.75 1.11 4.9-12.31q.19-.46.19-.77 0-.51-.46-.75-.45-.24-1.41-.24-.07 0-.07-.14t.07-.14l1.03.02q.82.05 1.49.05.5 0 1.13-.05l1-.02z"
            data-horizontal-grow="center" fill="#d2d6d9" font-size="24" font-weight="400"
            font-family="Cormorant Garamond" dominant-baseline="hanging" letter-spacing=".26em" />
    </svg>
</svg>